<?xml version="1.0" encoding="UTF-8" standalone="no"?>
<!-- Created with Inkscape (http://www.inkscape.org/) -->

<svg
   width="2400"
   height="600"
   viewBox="0 0 634.99893 158.75"
   version="1.1"
   id="svg5"
   xml:space="preserve"
   sodipodi:docname="splash_banner.svg"
   inkscape:version="1.2.2 (732a01da63, 2022-12-09)"
   xmlns:inkscape="http://www.inkscape.org/namespaces/inkscape"
   xmlns:sodipodi="http://sodipodi.sourceforge.net/DTD/sodipodi-0.dtd"
   xmlns="http://www.w3.org/2000/svg"
   xmlns:svg="http://www.w3.org/2000/svg"><sodipodi:namedview
     id="namedview69"
     pagecolor="#ffffff"
     bordercolor="#000000"
     borderopacity="0.25"
     inkscape:showpageshadow="2"
     inkscape:pageopacity="0.0"
     inkscape:pagecheckerboard="true"
     inkscape:deskcolor="#d1d1d1"
     showgrid="false"
     inkscape:zoom="0.40364012"
     inkscape:cx="1179.2683"
     inkscape:cy="413.73489"
     inkscape:window-width="1920"
     inkscape:window-height="1009"
     inkscape:window-x="-8"
     inkscape:window-y="-8"
     inkscape:window-maximized="1"
     inkscape:current-layer="text278" /><defs
     id="defs2"><rect
       x="284.90726"
       y="24.774544"
       width="183.33163"
       height="235.35817"
       id="rect280" /></defs><g
     id="layer1"
     transform="translate(258.02815,-34.910885)"
     style="fill:#000000"><g
       aria-label="KRAKYN"
       transform="matrix(14.358491,0,0,14.358491,-4310.8543,-335.01127)"
       id="text278"
       style="font-family:Cyberfunk;-inkscape-font-specification:Cyberfunk;white-space:pre;shape-inside:url(#rect280);display:inline;fill:#ffffff"><path
         d="m 290.6922,35.287391 q -0.156,0 -0.3,-0.012 -0.132,0 -0.3,0 -0.168,0 -0.384,0 -0.216,0 -0.516,0 l -4.284,-4.656 1.128,-0.984 h -1.128 v -2.388 l 1.128,-1.008 v 3.396 l 3.108,-2.76 h 1.392 l -4.08,3.768 q 0.96,1.056 1.62,1.788 0.672,0.72 1.116,1.212 0.444,0.48 0.708,0.768 0.264,0.276 0.408,0.444 0.156,0.156 0.228,0.252 0.084,0.084 0.156,0.18 z"
         id="path174" /><path
         d="m 291.34019,27.979391 h 1.116 l -1.116,-1.104 q 0.54,-0.012 1.128,0.012 0.6,0.012 1.164,0.108 0.564,0.084 1.068,0.252 0.504,0.168 0.888,0.456 0.384,0.276 0.6,0.708 0.228,0.42 0.228,1.008 0,0.408 -0.204,0.792 -0.204,0.372 -0.576,0.684 -0.36,0.312 -0.864,0.54 -0.504,0.228 -1.116,0.336 l 3.24,3.504 h -1.584 l -3.972,-4.452 z m 1.116,2.844 h 0.252 q 0.612,0 1.08,-0.144 0.48,-0.144 0.804,-0.348 0.324,-0.216 0.492,-0.456 0.18,-0.252 0.18,-0.456 0,-0.288 -0.144,-0.54 -0.132,-0.252 -0.456,-0.444 -0.324,-0.192 -0.864,-0.312 -0.54,-0.12 -1.344,-0.144 z"
         id="path176" /><path
         d="m 303.7362,35.275391 v 0 l -1.008,-2.568 h -3 l -1.476,3.648 -0.756,-1.08 1.08,-2.568 v 0 0 l -0.948,-1.092 h 1.356 l 1.764,-4.74 h 0.816 l 2.976,7.452 z m -3.672,-3.66 h 2.316 l -1.224,-3.12 z"
         id="path178" /><path
         d="m 310.93621,35.287391 q -0.156,0 -0.3,-0.012 -0.132,0 -0.3,0 -0.168,0 -0.384,0 -0.216,0 -0.516,0 l -4.284,-4.656 1.128,-0.984 h -1.128 v -2.388 l 1.128,-1.008 v 3.396 l 3.108,-2.76 h 1.392 l -4.08,3.768 q 0.96,1.056 1.62,1.788 0.672,0.72 1.116,1.212 0.444,0.48 0.708,0.768 0.264,0.276 0.408,0.444 0.156,0.156 0.228,0.252 0.084,0.084 0.156,0.18 z"
         id="path180" /><path
         d="m 317.1402,27.331391 -2.112,3.792 v 4.152 l -1.188,1.068 v -5.208 l -2.268,-4.26 h 0.54 v 0 h 0.66 l 1.716,3.204 2.052,-3.852 z"
         id="path182" /><path
         d="m 322.73221,26.239391 1.104,0.972 v 8.064 h -1.104 v 0.012 l -3.756,-6.708 0.012,6.696 -1.092,-0.84 v -7.56 0 h 1.38 l 3.456,6.348 v -6.984 z"
         id="path184" /></g></g></svg>
